<svg width="705" height="165" viewBox="0 0 705 165" fill="none" xmlns="http://www.w3.org/2000/svg">
<path d="M143.223 164.456C142.516 164.456 141.798 164.425 141.081 164.374C130.503 163.586 121.195 156.483 117.357 146.278C116.858 144.957 116.473 143.606 116.203 142.276C114.31 132.93 108.787 124.998 101.049 120.525L98.1786 118.867C93.3944 116.093 87.8926 114.629 82.2763 114.629C76.6601 114.629 70.6694 116.175 65.5108 119.112C58.9169 122.859 51.3869 124.834 43.7426 124.834C31.3244 124.834 19.4367 119.604 11.1475 110.494C2.74394 101.251 -1.11464 89.3163 0.279027 76.8697C2.50473 56.9921 18.8023 41.0552 39.0208 38.9671C40.5912 38.8033 42.1825 38.7215 43.7426 38.7215C51.4597 38.7215 59.0521 40.7379 65.6876 44.5455C70.9398 47.5651 76.8369 49.1618 82.7339 49.1618C88.267 49.1618 93.6856 47.7391 98.4179 45.0471L100.935 43.6141C108.787 39.1411 114.227 31.4644 116.234 22.0169C116.525 20.6351 116.951 19.2533 117.482 17.8919C121.496 7.73815 130.867 0.747202 141.351 0.0614139C141.975 0.0204713 142.599 0 143.223 0C151.044 0 158.522 3.29588 163.743 9.03808C169.027 14.8622 171.45 22.3751 170.556 30.2156C169.12 42.7953 158.356 53.0514 145.501 54.0647C144.742 54.1261 143.972 54.1568 143.223 54.1568C139.406 54.1568 135.724 53.3994 132.261 51.9152C128.101 50.1342 123.722 49.2232 119.229 49.2232C113.644 49.2232 108.163 50.6665 103.358 53.3994C93.4672 59.029 87.3933 69.756 87.4974 81.3837V81.7726C87.4974 82.0592 87.4974 82.3458 87.4974 82.6324C87.2685 94.1168 93.28 104.813 103.171 110.535L103.587 110.77C108.413 113.565 113.967 115.038 119.614 115.038C124.034 115.038 128.361 114.168 132.479 112.439C135.88 111.016 139.5 110.289 143.223 110.289C144.658 110.289 146.114 110.402 147.55 110.617C158.865 112.316 168.205 121.211 170.254 132.245C171.752 140.321 169.609 148.499 164.357 154.691C159.105 160.884 151.398 164.446 143.213 164.446L143.223 164.456ZM42.8169 58.8652C29.7332 58.8652 19.0831 69.3465 19.0831 82.223C19.0831 95.0994 29.7332 105.581 42.8169 105.581C55.9007 105.581 66.5508 95.0994 66.5508 82.223C66.5508 69.3465 55.9007 58.8652 42.8169 58.8652Z" fill="url(#paint0_linear_1062_31472)"/>
<path d="M248.068 126.759C239.24 126.759 231.365 124.798 224.465 120.875C217.565 116.953 212.106 111.633 208.063 104.871C204.021 98.1308 202 90.5117 202 82.0585C202 73.6054 203.998 66.0088 207.971 59.3139C211.943 52.619 217.426 47.3442 224.372 43.4671C231.318 39.5899 239.217 37.6738 248.045 37.6738C254.294 37.6738 260.102 38.7558 265.492 40.8973C270.882 43.0388 275.528 45.9917 279.478 49.7562C282.033 52.2133 284.124 54.9183 285.75 57.8938C287.167 60.5086 286.029 63.7546 283.218 64.9493L274.018 68.9167C271.625 69.9536 268.791 69.1196 267.444 66.9555C265.864 64.3858 263.773 62.2443 261.194 60.5086C257.361 57.9389 252.97 56.6765 248.022 56.6765C243.376 56.6765 239.264 57.7585 235.663 59.9C232.062 62.0414 229.228 65.0846 227.183 69.0068C225.139 72.9291 224.117 77.3473 224.117 82.2614C224.117 87.1755 225.139 91.7289 227.183 95.5836C229.228 99.4607 232.062 102.481 235.663 104.668C239.264 106.854 243.399 107.959 248.022 107.959C253.086 107.959 257.477 106.652 261.194 104.037C263.727 102.256 265.771 100.092 267.374 97.4996C268.721 95.3131 271.579 94.5015 273.972 95.561L283.195 99.596C285.982 100.813 287.121 104.082 285.657 106.674C284.054 109.514 282.01 112.174 279.524 114.609C275.644 118.418 271.021 121.416 265.632 123.558C260.242 125.699 254.364 126.781 248.022 126.781L248.068 126.759Z" fill="#2A3547"/>
<path d="M338.74 126.759C330.237 126.759 322.431 124.82 315.392 120.966C308.33 117.088 302.708 111.814 298.503 105.119C294.298 98.4238 292.207 90.8047 292.207 82.2163C292.207 73.6279 294.298 66.0088 298.503 59.3139C302.708 52.619 308.307 47.3442 315.299 43.4671C322.292 39.5899 330.121 37.6738 338.74 37.6738C347.359 37.6738 355.328 39.6124 362.343 43.4671C369.336 47.3442 374.912 52.5965 379.07 59.2237C383.206 65.8735 385.296 73.5152 385.296 82.1937C385.296 90.8723 383.206 98.4013 379.001 105.096C374.796 111.791 369.197 117.066 362.181 120.943C355.165 124.82 347.359 126.736 338.74 126.736V126.759ZM338.74 107.936C343.596 107.936 347.824 106.832 351.425 104.645C355.026 102.459 357.883 99.3931 359.997 95.4708C362.088 91.5486 363.157 87.1304 363.157 82.2163C363.157 77.3022 362.111 72.9066 359.997 69.0519C357.906 65.1747 355.049 62.1542 351.425 59.9451C347.824 57.7585 343.572 56.654 338.74 56.654C333.908 56.654 329.796 57.7585 326.125 59.9451C322.455 62.1316 319.574 65.1747 317.483 69.0519C315.392 72.9291 314.324 77.3022 314.324 82.2163C314.324 87.1304 315.369 91.5486 317.483 95.4708C319.574 99.3931 322.455 102.459 326.125 104.645C329.796 106.832 333.978 107.936 338.74 107.936Z" fill="#2A3547"/>
<path d="M436.039 126.759C427.536 126.759 419.73 124.82 412.691 120.966C405.629 117.088 400.007 111.814 395.802 105.119C391.597 98.4238 389.506 90.8047 389.506 82.2163C389.506 73.6279 391.597 66.0088 395.802 59.3139C400.007 52.619 405.605 47.3442 412.621 43.4671C419.614 39.5899 427.443 37.6738 436.062 37.6738C444.681 37.6738 452.65 39.6124 459.666 43.4671C466.658 47.3442 472.234 52.5965 476.392 59.2237C480.551 65.8735 482.618 73.5152 482.618 82.1937C482.618 90.8723 480.528 98.4013 476.323 105.096C472.118 111.791 466.519 117.066 459.526 120.943C452.51 124.82 444.704 126.736 436.085 126.736L436.039 126.759ZM436.039 107.936C440.894 107.936 445.122 106.832 448.723 104.645C452.324 102.459 455.182 99.3931 457.296 95.4708C459.387 91.5486 460.455 87.1304 460.455 82.2163C460.455 77.3022 459.41 72.9066 457.296 69.0519C455.205 65.1747 452.348 62.1542 448.723 59.9451C445.122 57.7585 440.894 56.654 436.039 56.654C431.183 56.654 427.095 57.7585 423.424 59.9451C419.754 62.1316 416.873 65.1747 414.782 69.0519C412.691 72.9291 411.622 77.3022 411.622 82.2163C411.622 87.1304 412.668 91.5486 414.782 95.4708C416.896 99.3931 419.777 102.459 423.424 104.645C427.071 106.832 431.276 107.936 436.039 107.936Z" fill="#2A3547"/>
<path d="M509.799 121.443L483.199 46.3338C482.038 43.0202 484.57 39.5938 488.171 39.5938H499.322C501.575 39.5938 503.597 40.9914 504.317 43.0878L525.272 104.356L517.512 104.198L539.861 42.9751C540.605 40.9463 542.579 39.5713 544.81 39.5713H556.123C558.354 39.5713 560.328 40.9463 561.072 42.9751L583.258 104.176L575.499 104.334L596.454 43.0653C597.174 40.9914 599.172 39.5713 601.448 39.5713H612.6C616.201 39.5713 618.733 43.0202 617.571 46.3113L590.948 121.42C590.228 123.472 588.23 124.869 585.976 124.869H574.569C572.316 124.869 570.341 123.494 569.598 121.42L546.9 57.2666H554.009L530.987 121.443C530.243 123.494 528.269 124.869 526.038 124.869H514.771C512.518 124.869 510.543 123.494 509.799 121.42V121.443Z" fill="#2A3547"/>
<path d="M626.17 119.771V44.6617C626.17 41.844 628.516 39.5673 631.42 39.5673H640.945C643.849 39.5673 646.196 41.844 646.196 44.6617V56.3383L644.569 53.3628C646.614 48.2458 649.982 44.3461 654.675 41.6862C659.368 39.0263 664.827 37.6963 671.077 37.6963C677.326 37.6963 683.273 39.0488 688.291 41.7763C693.31 44.5039 697.212 48.2909 700 53.1374C702.811 58.0064 704.205 63.6193 704.205 69.9986V119.793C704.205 122.611 701.859 124.888 698.955 124.888H688.291C685.388 124.888 683.041 122.611 683.041 119.793V74.8676C683.041 71.1031 682.298 67.8571 680.788 65.1521C679.278 62.4246 677.187 60.3507 674.492 58.8855C671.797 57.4203 668.73 56.699 665.269 56.699C661.807 56.699 658.741 57.4429 656.069 58.8855C653.374 60.3507 651.283 62.4471 649.773 65.1521C648.263 67.8797 647.52 71.1031 647.52 74.8676V119.793C647.52 122.611 645.173 124.888 642.27 124.888H631.444C628.54 124.888 626.193 122.611 626.193 119.793L626.17 119.771Z" fill="#2A3547"/>
<defs>
<linearGradient id="paint0_linear_1062_31472" x1="170.737" y1="82.2281" x2="0" y2="82.2281" gradientUnits="userSpaceOnUse">
<stop stop-color="#F9A6A7"/>
<stop offset="0.248" stop-color="#E382AF"/>
<stop offset="0.5" stop-color="#5D87FF"/>
<stop offset="1" stop-color="#62B6FF"/>
</linearGradient>
</defs>
</svg>
