<svg width="500" height="500" viewBox="0 0 500 500" fill="none" xmlns="http://www.w3.org/2000/svg">
<rect width="500" height="500" fill="url(#paint0_linear_4242_87570)"/>
<rect width="500" height="500" fill="white" fill-opacity="0.9"/>
<path d="M351.498 409C350.123 409 348.727 408.941 347.332 408.842C326.764 407.318 308.664 393.582 301.202 373.849C300.231 371.296 299.483 368.683 298.957 366.11C295.276 348.04 284.537 332.701 269.491 324.052L263.909 320.846C254.606 315.482 243.908 312.652 232.987 312.652C222.066 312.652 210.417 315.641 200.386 321.321C187.564 328.565 172.922 332.385 158.058 332.385C133.911 332.385 110.795 322.271 94.6764 304.656C78.3356 286.784 70.8326 263.706 73.5426 239.639C77.8705 201.203 109.561 170.386 148.876 166.349C151.93 166.032 155.024 165.874 158.058 165.874C173.064 165.874 187.827 169.773 200.73 177.135C210.943 182.974 222.41 186.062 233.877 186.062C244.636 186.062 255.172 183.31 264.374 178.105L269.268 175.334C284.537 166.685 295.114 151.841 299.017 133.573C299.584 130.901 300.413 128.229 301.444 125.597C309.251 105.963 327.472 92.4448 347.858 91.1188C349.071 91.0396 350.285 91 351.498 91C366.706 91 381.247 97.3731 391.4 108.476C401.673 119.738 406.385 134.266 404.646 149.426C401.855 173.751 380.924 193.583 355.927 195.542C354.451 195.661 352.954 195.72 351.498 195.72C344.076 195.72 336.917 194.256 330.182 191.386C322.093 187.942 313.578 186.18 304.842 186.18C293.982 186.18 283.324 188.971 273.98 194.255C254.748 205.141 242.937 225.883 243.139 248.367V249.119C243.139 249.673 243.139 250.228 243.139 250.782C242.694 272.989 254.384 293.671 273.616 304.735L274.425 305.19C283.809 310.594 294.609 313.444 305.59 313.444C314.185 313.444 322.598 311.761 330.607 308.416C337.22 305.665 344.258 304.26 351.498 304.26C354.289 304.26 357.12 304.478 359.911 304.893C381.915 308.179 400.076 325.378 404.06 346.714C406.972 362.33 402.806 378.144 392.593 390.118C382.38 402.093 367.394 408.98 351.478 408.98L351.498 409ZM156.258 204.824C130.816 204.824 110.107 225.092 110.107 249.99C110.107 274.889 130.816 295.156 156.258 295.156C181.699 295.156 202.408 274.889 202.408 249.99C202.408 225.092 181.699 204.824 156.258 204.824Z" fill="url(#paint1_linear_4242_87570)"/>
<defs>
<linearGradient id="paint0_linear_4242_87570" x1="500" y1="500" x2="1.61217e-05" y2="-1.61217e-05" gradientUnits="userSpaceOnUse">
<stop stop-color="#F9A6A7"/>
<stop offset="0.248" stop-color="#E382AF"/>
<stop offset="0.5" stop-color="#5D87FF"/>
<stop offset="1" stop-color="#62B6FF"/>
</linearGradient>
<linearGradient id="paint1_linear_4242_87570" x1="405" y1="250" x2="73" y2="250" gradientUnits="userSpaceOnUse">
<stop stop-color="#F9A6A7"/>
<stop offset="0.248" stop-color="#E382AF"/>
<stop offset="0.5" stop-color="#5D87FF"/>
<stop offset="1" stop-color="#62B6FF"/>
</linearGradient>
</defs>
</svg>
